<?xml version="1.0" standalone="no"?>
<!DOCTYPE svg PUBLIC "-//W3C//DTD SVG 20010904//EN"
 "http://www.w3.org/TR/2001/REC-SVG-20010904/DTD/svg10.dtd">
<svg version="1.0" xmlns="http://www.w3.org/2000/svg"
 width="900.000000pt" height="520.000000pt" viewBox="0 0 900.000000 520.000000"
 preserveAspectRatio="xMidYMid meet">

<g transform="translate(0.000000,520.000000) scale(0.100000,-0.100000)"
fill="#000000" stroke="none">
<path d="M3045 4574 c-215 -45 -400 -211 -459 -413 -14 -49 -16 -182 -16
-1215 0 -1257 -2 -1200 56 -1321 41 -88 167 -209 264 -257 107 -53 182 -68
338 -68 l132 0 0 -47 c1 -127 65 -274 161 -372 73 -74 149 -121 254 -158 l80
-28 1012 -3 c1134 -3 1087 -5 1241 69 145 70 261 207 306 358 14 49 16 182 16
1219 l0 1163 -25 76 c-48 143 -158 268 -296 335 -105 53 -181 68 -336 68
l-133 0 0 48 c-1 126 -65 273 -161 371 -73 74 -149 121 -254 158 l-80 28
-1015 2 c-856 1 -1026 -1 -1085 -13z m2901 -797 c78 -26 169 -92 213 -153 76
-106 72 -40 69 -1314 l-3 -1135 -32 -66 c-41 -82 -111 -150 -201 -192 l-67
-32 -1000 -3 c-1119 -3 -1069 -6 -1183 67 -97 63 -152 147 -172 262 -8 45 -10
398 -8 1169 l3 1105 23 56 c50 125 178 224 322 249 25 4 482 7 1015 6 895 -1
974 -3 1021 -19z"/>
<path d="M3861 3193 c-11 -10 -24 -32 -27 -50 -5 -27 -1 -37 24 -63 l30 -30
831 0 c596 0 837 3 855 11 31 14 49 57 40 93 -14 59 28 56 -890 56 -787 0
-843 -1 -863 -17z"/>
<path d="M4195 2635 c-16 -15 -25 -36 -25 -55 0 -19 9 -40 25 -55 l24 -25 789
0 c783 0 790 0 816 21 35 27 36 86 3 117 l-23 22 -793 0 -792 0 -24 -25z"/>
<path d="M3859 2081 c-16 -16 -29 -37 -29 -46 0 -24 27 -72 45 -79 9 -3 349
-6 756 -6 l740 0 24 25 c16 15 25 36 25 55 0 19 -9 40 -25 55 l-24 25 -741 0
-742 0 -29 -29z"/>
<path d="M4386 1539 c-33 -26 -37 -88 -6 -119 20 -20 33 -20 723 -20 l704 0
21 23 c32 34 30 89 -4 116 -26 21 -34 21 -719 21 -685 0 -693 0 -719 -21z"/>
</g>
</svg>
