<?xml version="1.0" encoding="UTF-8"?>
<svg xmlns="http://www.w3.org/2000/svg" xmlns:xlink="http://www.w3.org/1999/xlink" width="36px" height="36px" viewBox="0 0 36 36" version="1.1">
<g id="surface1">
<path style=" stroke:none;fill-rule:nonzero;fill:rgb(0%,0%,0%);fill-opacity:1;" d="M 6.414062 6.414062 C 5.960938 6.863281 7.988281 9.5625 10.914062 12.601562 L 16.199219 18 L 10.914062 23.398438 C 7.988281 26.4375 5.960938 29.136719 6.414062 29.585938 C 6.863281 30.039062 9.5625 28.011719 12.601562 25.085938 L 18 19.800781 L 23.398438 25.085938 C 26.4375 28.011719 29.136719 30.039062 29.585938 29.585938 C 30.039062 29.136719 28.011719 26.4375 25.085938 23.398438 L 19.800781 18 L 25.085938 12.601562 C 28.011719 9.5625 30.039062 6.863281 29.585938 6.414062 C 29.136719 5.960938 26.4375 7.988281 23.398438 10.914062 L 18 16.199219 L 12.601562 10.914062 C 9.5625 7.988281 6.863281 5.960938 6.414062 6.414062 Z M 6.414062 6.414062 "/>
</g>
</svg>
