<svg xmlns="http://www.w3.org/2000/svg" viewBox="0 0 52 52"><defs><style>.cls-1{fill:#fff;opacity:0;}.cls-2{fill:#ffffff;}</style></defs><title>checkmark-circle-2</title><g id="Layer_2" data-name="Layer 2"><g id="checkmark-circle-2"><g id="checkmark-circle-2-2" data-name="checkmark-circle-2"><rect class="cls-1" width="52" height="52"/><path class="cls-2" d="M44.373 7.603c-10.137-10.137-26.632-10.138-36.77 0-10.138 10.138-10.137 26.632 0 36.77s26.632 10.138 36.77 0c10.137-10.138 10.137-26.633 0-36.77zm-8.132 28.638a2 2 0 01-2.828 0l-7.425-7.425-7.778 7.778a2 2 0 11-2.828-2.828l7.778-7.778-7.425-7.425a2 2 0 112.828-2.828l7.425 7.425 7.071-7.071a2 2 0 112.828 2.828l-7.071 7.071 7.425 7.425a2 2 0 010 2.828z"/></g></g></g></svg>