<?xml version="1.0" standalone="no"?>
<!DOCTYPE svg PUBLIC "-//W3C//DTD SVG 1.1//EN" "http://www.w3.org/Graphics/SVG/1.1/DTD/svg11.dtd" >
<svg xmlns="http://www.w3.org/2000/svg">
<metadata>Generated by IcoMoon</metadata>
<defs>
<font id="icomoon" horiz-adv-x="1024">
<font-face units-per-em="1024" ascent="960" descent="-64" />
<missing-glyph horiz-adv-x="1024" />
<glyph unicode="&#x20;" horiz-adv-x="512" d="" />
<glyph unicode="&#xe900;" glyph-name="category-cases" horiz-adv-x="936" d="M455.904 955.803c-14.828-1.679-20.144-4.057-56.516-25.18-29.377-17.067-51.34-29.517-67.847-38.75-3.497-1.958-6.855-4.057-7.694-4.616-0.699-0.699-7.694-4.756-15.388-9.093-7.694-4.477-15.808-9.093-18.186-10.492-2.238-1.259-14.828-8.533-27.978-16.087-13.010-7.554-26.020-15.108-28.678-16.787s-14.269-8.393-25.88-14.968c-17.906-10.212-64.070-36.791-77.919-44.905-6.575-3.917-38.75-22.383-61.552-35.532-28.957-16.647-34.693-22.383-34.693-34.973 0-13.43 3.917-16.787 51.060-43.786 19.305-10.911 38.19-21.823 41.967-24.201 3.917-2.238 9.792-5.736 13.29-7.694s13.849-7.834 23.082-13.29c9.233-5.456 22.522-13.15 29.377-17.067 6.995-4.057 20.144-11.611 29.377-17.067 9.233-5.316 20.004-11.471 23.781-13.709 15.248-8.393 19.725-11.051 23.082-13.29 1.958-1.259 9.233-5.596 16.087-9.373 6.995-3.917 16.367-9.233 20.984-11.891 25.18-14.828 109.255-63.51 120.306-69.666 13.29-7.554 24.901-10.352 43.366-10.352 21.963-0.14 30.077 2.378 55.257 17.067 5.736 3.217 11.751 6.715 13.29 7.694 1.539 0.839 18.605 10.632 37.77 21.683 19.305 11.191 37.77 21.823 41.268 23.781s11.611 6.575 18.186 10.492c6.575 3.917 21.963 12.87 34.273 19.864 12.31 7.134 33.434 19.445 46.863 27.279s31.475 18.186 39.869 23.082c8.533 4.756 29.237 16.647 46.164 26.579 16.927 9.792 40.568 23.502 52.459 30.496 11.891 6.855 24.761 14.269 28.538 16.227 9.652 5.176 19.445 15.108 21.683 22.103 1.679 5.176 1.679 6.715-0.42 12.031-3.078 8.393-10.212 14.689-27.419 24.341-29.377 16.647-45.744 26.16-61.552 35.392-8.813 5.176-24.901 14.549-35.672 20.704s-26.859 15.388-35.672 20.564c-29.657 17.486-75.681 44.066-86.732 50.081-4.197 2.238-8.673 5.036-9.932 6.015-1.119 1.119-2.518 1.958-2.798 1.958-0.839 0-21.123 11.611-51.62 29.377-9.652 5.596-23.781 13.849-31.475 18.186-7.694 4.477-23.362 13.569-34.973 20.144-11.471 6.715-24.761 13.29-29.517 14.828-10.492 3.217-27.279 4.337-41.268 2.798zM494.234 822.767c28.258-5.736 52.039-21.263 57.635-37.491 2.378-6.995 2.798-19.025 0.839-26.579-4.756-17.766-5.736-22.662-6.575-29.797-0.56-5.176-0.28-9.513 0.839-12.17 1.679-4.197 8.114-9.932 13.010-11.751 4.756-1.819 2.098-4.616-11.891-12.59-7.974-4.337-15.948-8.953-17.906-10.072-9.513-5.736-46.444-25.88-47.283-25.88-1.539 0-18.046 10.352-21.403 13.43-9.233 8.393-10.632 23.222-4.477 46.863 2.378 9.233 3.777 18.186 3.777 24.481 0 8.673-0.42 10.632-3.637 14.828-2.098 2.798-6.855 6.435-10.492 8.254-5.736 2.798-8.813 3.217-21.403 3.217-16.227 0-23.222-1.819-39.729-9.932-20.424-10.212-42.807-30.216-56.376-50.361-4.197-6.435-8.393-11.611-9.233-11.611-0.699 0-9.093 4.337-18.326 9.652-9.373 5.176-21.543 12.031-26.999 14.968-5.596 2.938-10.212 6.155-10.212 7.134 0 1.679 28.118 27.419 39.309 35.952 28.957 21.963 77.22 46.304 108.555 54.837 30.636 8.114 57.215 9.652 81.976 4.616zM614.26 674.343c11.191-6.435 23.921-13.43 28.398-15.808 11.051-5.875 14.409-8.673 12.73-10.352-0.839-0.699-16.787-9.932-35.672-20.424s-35.672-20.004-37.351-21.123c-4.756-2.938-6.435-2.518-19.725 4.896-6.715 3.777-15.668 8.813-19.864 11.191s-12.59 6.995-18.466 10.212c-6.015 3.217-10.911 6.575-10.911 7.414s12.73 8.813 28.398 17.486c15.528 8.673 32.734 18.605 38.050 21.823 5.456 3.357 10.772 6.015 11.891 6.015 1.119 0.14 11.331-5.036 22.522-11.331zM13.849 636.153c-1.958-1.119-4.756-3.637-6.015-5.596-6.575-10.072-6.435-4.337-6.435-216.691 0-136.953 0.42-201.722 1.539-205.639 6.015-23.222 14.409-38.19 29.237-52.179 5.036-4.756 7.554-6.435 47.563-29.517 12.73-7.274 28.817-16.647 35.672-20.564 6.995-4.057 18.326-10.632 25.18-14.549 6.995-4.057 13.569-7.834 14.689-8.533 2.518-1.679 34.553-20.004 43.366-24.901 3.497-1.819 6.995-3.917 7.694-4.616 1.259-0.979 12.45-7.274 53.858-30.916 2.658-1.539 8.393-4.896 12.59-7.414s10.772-6.295 14.689-8.393c3.777-2.098 11.891-6.715 18.186-10.492 6.155-3.637 16.087-9.373 22.103-12.73s17.906-10.352 26.579-15.388c8.673-5.036 24.481-14.269 35.392-20.564l19.725-11.471h14.828c14.549 0 14.828 0 17.346 3.777 6.155 9.093 6.015 2.098 6.015 216.551 0 219.628 0.28 210.536-6.855 226.623-4.616 10.492-15.108 25.18-22.662 32.035-3.777 3.357-11.191 8.533-16.367 11.471s-10.911 6.295-12.87 7.554c-1.958 1.399-10.352 6.295-18.885 11.191-8.393 4.896-19.165 11.051-23.781 13.709s-10.632 6.015-13.29 7.554c-2.658 1.539-12.73 7.414-22.383 13.010-22.243 12.87-63.091 36.372-71.344 40.988-3.497 1.958-12.87 7.414-20.984 12.17s-29.797 17.346-48.262 27.978c-18.466 10.632-41.967 24.201-52.319 30.356-10.352 6.015-18.885 10.911-19.165 10.911-0.14 0-5.875 3.217-12.73 7.134-6.715 4.057-17.906 10.492-24.901 14.549-22.522 13.15-26.439 14.689-35.252 14.689-4.477-0.14-9.792-0.979-11.751-2.098zM137.093 478.636c47.143-13.43 76.38-28.538 110.374-56.936 36.511-30.496 57.495-70.785 57.495-109.814 0-20.284-3.917-31.615-13.849-40.568-8.114-7.414-14.689-11.191-28.118-16.227-21.823-8.254-26.579-13.43-26.579-28.817 0-4.197-0.42-7.694-0.839-7.694-0.839 0-17.067 8.953-23.642 13.010-6.715 4.057-20.564 12.31-32.874 19.165-7.274 4.197-13.849 8.114-14.409 8.953-1.539 1.958-0.14 22.383 1.819 29.377 3.217 10.772 17.486 20.844 45.185 31.615 10.352 4.057 16.647 9.932 19.864 18.745 2.378 6.015 2.378 7.694 0.839 15.388-2.238 11.051-7.414 20.424-16.647 30.356-8.813 9.513-17.346 15.248-32.035 21.403-16.087 6.715-25.6 8.533-44.066 8.533h-16.507v33.294c0 25.6 0.42 33.154 1.819 33.154 0.839 0 6.435-1.399 12.17-2.938zM176.962 220.538c24.341-14.409 50.64-29.797 53.858-31.336 1.958-0.979 3.917-2.518 4.477-3.357 1.259-1.819 1.539-72.743 0.28-73.862-0.42-0.56-5.456 1.958-11.191 5.316-5.596 3.357-14.549 8.393-19.725 11.191-5.316 2.938-14.269 8.114-20.004 11.611s-12.45 7.414-14.689 8.533c-2.378 1.119-4.616 2.658-5.176 3.497-1.399 1.819-1.399 72.603-0.14 74.002 1.119 1.119 0.28 1.539 12.31-5.596zM896 632.936c-5.316-2.938-11.331-6.295-13.29-7.554-1.958-1.119-18.605-10.772-37.071-21.403s-40.848-23.502-49.661-28.678c-8.813-5.176-24.901-14.549-35.672-20.704s-33.714-19.305-51.060-29.377c-17.346-9.932-44.066-25.46-59.454-34.273-15.388-8.953-30.776-17.766-34.273-19.864-22.103-13.010-77.22-44.625-81.836-46.863-6.715-3.357-23.362-20.984-29.097-30.776-2.938-5.036-6.855-14.129-8.673-20.424l-3.497-11.191v-204.38c0-148.704 0.42-205.499 1.539-208.997 0.979-2.658 3.217-6.435 5.176-8.673 3.497-3.637 4.197-3.777 17.346-3.777 16.227 0 8.533-3.497 68.966 31.475 16.927 9.792 34.833 20.144 39.869 22.942 5.036 2.938 15.388 8.953 23.082 13.569 14.269 8.393 20.424 11.891 31.475 18.046 3.497 1.958 8.533 4.896 11.191 6.435 2.658 1.679 25.74 14.968 51.060 29.517 25.46 14.689 48.122 27.698 50.361 29.097 23.781 13.849 28.957 16.787 29.517 16.787 0.28 0 3.078 1.539 6.155 3.497 7.694 4.756 44.625 26.299 49.661 28.957 27.698 14.129 43.226 29.377 53.438 52.879l4.616 10.492v426.107l-3.078 4.197c-4.477 6.015-9.513 8.254-18.885 8.254-6.715 0-9.932-0.979-17.906-5.316zM803.952 456.673c12.17-6.295 18.466-21.263 18.605-44.625 0-25.74-12.45-58.055-36.931-95.545-25.32-38.75-31.475-51.62-31.615-65.749 0-5.036-0.56-9.792-1.119-10.632s-14.549-9.233-31.056-18.745c-16.507-9.373-31.755-18.326-33.854-19.725-6.015-4.197-6.715-3.497-6.715 7.274 0 24.901 9.233 46.164 41.967 96.385 17.067 26.16 25.040 43.366 26.16 55.816 1.399 17.346-4.197 25.32-16.787 23.222-7.834-1.399-24.201-10.072-35.532-19.025-10.911-8.533-33.574-30.916-46.304-45.744-4.756-5.596-8.953-9.932-9.513-9.792-0.42 0.28-0.699 14.689-0.699 32.315v31.755l4.616 3.777c2.518 2.098 8.114 7.134 12.31 11.051 12.59 11.611 38.75 32.315 51.2 40.568 21.823 14.269 50.081 27.279 66.308 30.496 7.974 1.539 23.082-0.14 28.957-3.078zM754.011 169.897c0-19.725-0.56-36.651-1.119-37.351-0.56-0.839-4.477-3.217-8.673-5.456s-13.989-7.974-21.683-12.45c-7.694-4.616-17.486-10.352-21.683-12.59-4.197-2.378-9.792-5.736-12.45-7.414-2.658-1.819-5.316-2.938-6.015-2.518-0.56 0.42-1.119 17.207-1.119 37.491v36.791l21.403 12.31c11.611 6.715 27.558 15.948 35.113 20.424 7.694 4.477 14.549 7.834 15.108 7.414s1.119-16.927 1.119-36.651z" />
<glyph unicode="&#xe901;" glyph-name="category-question" d="M476.473 958.851c-108.147-7.837-208.771-48.379-292.571-117.864-15.673-12.852-52.349-49.633-64.993-64.888-92.056-111.595-132.702-251.089-114.73-393.404 10.136-79.412 40.124-158.093 85.368-223.817 28.944-42.109 65.62-81.293 106.371-113.58 45.976-36.362 102.4-66.456 159.347-84.741 150.465-48.379 316.082-24.242 445.858 64.993 42.527 29.153 83.487 67.814 114.834 108.042 56.424 72.62 92.473 158.929 103.758 249.104 18.599 147.54-25.809 292.258-123.82 403.853-11.703 13.375-40.333 41.587-53.185 52.349-79.726 67.082-173.976 107.207-278.465 118.491-18.181 1.985-69.381 2.821-87.771 1.463zM546.482 804.833c89.025-13.793 162.795-78.994 187.141-165.407 6.478-23.092 7.732-33.541 7.732-62.903-0.104-28.839-0.836-35.109-6.792-58.096-15.36-59.246-56.529-112.849-108.878-141.688-5.956-3.239-14.315-7.837-18.704-10.24-15.047-8.15-26.645-20.062-33.75-34.691-4.598-9.195-7.941-22.047-7.941-29.989 0-25.809-13.688-46.393-36.153-54.544-8.777-3.239-25.496-3.239-34.273 0-18.39 6.687-32.078 23.197-35.109 42.423-2.926 18.39 3.344 54.126 13.688 78.472 18.286 42.423 46.289 72.307 88.816 94.459 17.345 9.091 27.063 15.882 37.407 26.227 49.319 49.11 48.797 128.836-1.045 177.006-11.703 11.389-19.54 16.823-33.75 23.615-39.288 18.704-85.264 15.36-121.835-8.986-26.854-17.868-45.349-44.617-52.872-76.8-0.836-3.762-1.985-13.375-2.612-21.42-0.522-8.046-1.672-17.241-2.612-20.376-8.046-28.108-39.184-44.304-66.978-35.004-14.733 5.016-24.451 13.479-31.138 27.167-4.807 9.927-6.165 18.181-5.329 32.914 3.030 52.454 21.525 99.474 54.753 139.076 38.452 45.662 95.817 75.233 156.944 80.771 9.718 0.836 42.736-0.418 53.29-1.985zM530.181 184.163c25.078-6.583 45.453-27.376 51.513-52.558 2.194-9.091 2.090-24.869-0.104-33.646-0.94-3.762-3.657-10.762-6.060-15.673-5.538-11.389-18.39-24.66-29.675-30.616-14.629-7.628-34.482-10.136-50.573-6.478-19.226 4.598-38.243 19.54-46.811 37.094-5.747 11.703-7.837 20.167-7.837 32.392 0 16.927 5.016 31.556 15.256 44.617 17.45 22.152 46.916 31.974 74.292 24.869z" />
<glyph unicode="&#xe902;" glyph-name="category-human" d="M486.922 958.328c-25.913-3.135-45.558-7.419-63.634-14.002-75.337-26.958-132.598-79.726-163.422-150.57-28.526-65.306-30.824-137.822-6.478-204.278 5.538-15.256 19.122-42.109 28.212-55.798 20.793-31.347 46.707-57.469 77.322-78.263 78.472-53.29 177.424-61.753 264.568-22.779 48.379 21.629 88.294 55.275 117.342 98.743 54.439 81.398 61.544 184.842 18.808 272.405-13.166 27.063-28.317 48.483-50.155 70.949-43.259 44.513-92.996 70.635-154.749 81.189-10.24 1.672-18.39 2.299-38.557 2.508-14.106 0.209-27.272 0.104-29.257-0.104zM250.253 413.205c-37.512-15.36-108.042-78.263-149.107-132.911-17.45-23.301-30.198-44.408-46.707-77.845-31.347-63.216-46.393-116.82-52.872-188.082-2.612-29.362-1.567-47.229 3.553-57.365 2.926-5.538 8.359-11.598 14.733-16.3l5.016-3.657h974.89l5.747 4.702c8.882 7.21 13.061 12.748 15.464 20.376 2.821 9.091 3.553 25.182 2.090 44.408-5.851 73.038-21.42 131.657-51.304 192.261-24.764 50.364-51.2 88.712-89.548 129.672-33.541 35.944-90.279 79.517-112.431 86.309-14.106 4.284-22.256 1.358-51.096-18.286-22.361-15.151-32.81-21.42-50.887-30.407-32.287-16.196-68.754-27.794-102.504-32.496-16.405-2.403-75.337-3.344-94.25-1.567-23.197 2.090-44.826 6.896-71.367 15.987-33.228 11.389-53.29 21.525-90.384 45.871-21.525 14.106-30.407 19.331-35.944 21.316-6.687 2.403-13.793 1.776-23.092-1.985z" />
<glyph unicode="&#xe903;" glyph-name="category-crown" d="M454.4 777.6c3.2-51.2-25.6-150.4-67.2-227.2l-70.4-137.6-92.8 67.2c-57.6 41.6-86.4 83.2-76.8 112 25.6 60.8-73.6 102.4-124.8 51.2-25.6-25.6-19.2-51.2 32-96 35.2-35.2 73.6-121.6 86.4-192l19.2-131.2h704l19.2 131.2c12.8 70.4 51.2 156.8 86.4 192 51.2 44.8 57.6 70.4 32 96-51.2 51.2-150.4 9.6-124.8-51.2 9.6-28.8-19.2-70.4-76.8-112l-92.8-67.2-70.4 137.6c-41.6 76.8-70.4 176-67.2 227.2 6.4 67.2-6.4 86.4-57.6 86.4s-64-19.2-57.6-86.4zM160 80c0-38.4 60.8-48 352-48s352 9.6 352 48c0 38.4-60.8 48-352 48s-352-9.6-352-48z" />
<glyph unicode="&#xe904;" glyph-name="category-price-tag" d="M976 960h-384c-26.4 0-63.274-15.274-81.942-33.942l-476.116-476.116c-18.668-18.668-18.668-49.214 0-67.882l412.118-412.118c18.668-18.668 49.214-18.668 67.882 0l476.118 476.118c18.666 18.666 33.94 55.54 33.94 81.94v384c0 26.4-21.6 48-48 48zM736 576c-53.020 0-96 42.98-96 96s42.98 96 96 96 96-42.98 96-96-42.98-96-96-96z" />
<glyph unicode="&#xe905;" glyph-name="category-list" d="M141.56 940.633c-54.737-11.456-101.836-53.723-116.86-105.148-3.565-12.477-4.071-46.34-4.071-309.341 0-320.029-0.511-305.517 14.258-336.321 10.442-22.407 42.517-53.213 67.215-65.435 27.245-13.491 46.34-17.315 86.055-17.315h33.607v-11.966c0.256-32.333 16.549-69.762 40.992-94.707 18.584-18.839 37.935-30.806 64.668-40.226l20.367-7.129 257.651-0.767c288.713-0.767 276.746-1.271 315.958 17.57 36.92 17.825 66.449 52.702 77.903 91.146 3.565 12.477 4.071 46.34 4.071 310.353v296.098l-6.362 19.35c-12.222 36.409-40.226 68.231-75.361 85.288-26.734 13.491-46.084 17.315-85.543 17.315h-33.863v12.222c-0.256 32.082-16.549 69.506-40.992 94.457-18.584 18.839-37.935 30.806-64.668 40.226l-20.367 7.129-258.418 0.511c-217.937 0.256-261.22-0.256-276.241-3.313zM880.153 737.718c19.861-6.618 43.027-23.422 54.228-38.955 19.35-26.989 18.328-10.186 17.57-334.542l-0.767-288.969-8.151-16.804c-10.442-20.875-28.259-38.189-51.178-48.886l-17.060-8.151-254.602-0.767c-284.897-0.767-272.165-1.525-301.189 17.060-24.699 16.037-38.7 37.424-43.794 66.704-2.035 11.456-2.546 101.333-2.035 297.629l0.767 281.329 5.858 14.258c12.732 31.826 45.317 57.029 81.982 63.395 6.362 1.022 122.719 1.78 258.418 1.525 227.867-0.256 247.976-0.767 259.942-4.838zM349.311 589.031c-2.802-2.546-6.107-8.151-6.873-12.732-1.271-6.873-0.256-9.42 6.107-16.037l7.64-7.64h211.575c151.744 0 213.101 0.767 217.682 2.802 7.896 3.565 12.477 14.513 10.186 23.677-3.565 15.022 7.129 14.258-226.592 14.258-200.367 0-214.625-0.256-219.718-4.327zM434.346 446.962c-4.071-3.816-6.362-9.164-6.362-14.002s2.291-10.186 6.362-14.002l6.107-6.362h200.878c199.354 0 201.134 0 207.751 5.348 8.908 6.873 9.164 21.896 0.767 29.791l-5.858 5.603h-403.537l-6.107-6.362zM348.803 305.915c-4.071-4.071-7.384-9.42-7.384-11.71 0-6.107 6.873-18.328 11.456-20.116 2.291-0.767 88.855-1.525 192.479-1.525h188.401l6.107 6.362c4.071 3.816 6.362 9.164 6.362 14.002s-2.291 10.186-6.362 14.002l-6.107 6.362h-377.569l-7.384-7.384zM482.978 167.925c-8.401-6.618-9.42-22.407-1.525-30.295 5.093-5.093 8.401-5.093 184.074-5.093h179.237l5.348 5.858c8.151 8.653 7.64 22.661-1.022 29.536-6.618 5.348-8.653 5.348-183.055 5.348s-176.436 0-183.055-5.348z" />
<glyph unicode="&#xe906;" glyph-name="category-games" d="M870.4 894.464c-12.288-24.576-83.968-77.824-163.84-116.736-118.784-61.44-149.504-88.064-184.32-159.744-28.672-61.44-49.152-83.968-71.68-73.728-131.072 51.2-184.32 55.296-239.616 14.336-32.768-24.576-88.064-102.4-126.976-176.128-110.592-215.040-106.496-409.6 8.192-438.272 75.776-18.432 131.072 2.048 268.288 94.208 65.536 45.056 135.168 81.92 151.552 81.92s86.016-36.864 151.552-81.92c67.584-45.056 143.36-88.064 169.984-94.208 172.032-43.008 237.568 110.592 149.504 348.16-55.296 147.456-151.552 274.432-219.136 290.816-49.152 12.288-75.776 8.192-198.656-43.008-32.768-14.336-34.816-10.24-22.528 32.768 24.576 79.872 73.728 122.88 208.896 184.32 114.688 51.2 169.984 102.4 169.984 159.744 0 38.912-30.72 24.576-51.2-22.528zM790.528 384.512c20.48-34.816-26.624-73.728-55.296-45.056-24.576 24.576-8.192 67.584 22.528 67.584 10.24 0 24.576-10.24 32.768-22.528zM307.2 355.84c0-16.384 14.336-30.72 30.72-30.72s30.72-14.336 30.72-30.72c0-16.384-14.336-30.72-30.72-30.72s-30.72-14.336-30.72-30.72c0-16.384-14.336-30.72-30.72-30.72s-30.72 14.336-30.72 30.72c0 16.384-14.336 30.72-30.72 30.72s-30.72 14.336-30.72 30.72c0 16.384 14.336 30.72 30.72 30.72s30.72 14.336 30.72 30.72c0 16.384 14.336 30.72 30.72 30.72s30.72-14.336 30.72-30.72zM708.608 302.592c20.48-34.816-26.624-73.728-55.296-45.056-24.576 24.576-8.192 67.584 22.528 67.584 10.24 0 24.576-10.24 32.768-22.528zM872.448 302.592c20.48-34.816-26.624-73.728-55.296-45.056-24.576 24.576-8.192 67.584 22.528 67.584 10.24 0 24.576-10.24 32.768-22.528zM790.528 220.672c20.48-34.816-26.624-73.728-55.296-45.056-24.576 24.576-8.192 67.584 22.528 67.584 10.24 0 24.576-10.24 32.768-22.528z" />
<glyph unicode="&#xe907;" glyph-name="category-chest" d="M85.333 746.667c0-72.533 29.867-85.333 170.667-85.333s170.667 12.8 170.667 85.333c0 72.533-29.867 85.333-170.667 85.333s-170.667-12.8-170.667-85.333zM597.333 746.667c0-72.533 29.867-85.333 170.667-85.333s170.667 12.8 170.667 85.333c0 72.533-29.867 85.333-170.667 85.333s-170.667-12.8-170.667-85.333zM136.533 332.8l12.8-247.467h725.333l12.8 247.467 12.8 243.2h-153.6c-81.067 0-149.333-17.067-149.333-42.667 0-21.333-38.4-42.667-85.333-42.667s-85.333 21.333-85.333 42.667c0 25.6-68.267 42.667-149.333 42.667h-153.6l12.8-243.2z" />
<glyph unicode="&#xe908;" glyph-name="category-dirt1" d="M298.667 810.667c-149.333-51.2-149.333-55.467-162.133-332.8-8.533-243.2 0-285.867 72.533-324.267 68.267-38.4 85.333-29.867 102.4 29.867 17.067 64 25.6 59.733 51.2-21.333 42.667-136.533 123.733-149.333 341.333-55.467l192 81.067v281.6c0 264.533-4.267 281.6-115.2 324.267-192 72.533-324.267 76.8-482.133 17.067zM708.267 721.067c72.533-17.067 102.4-55.467 102.4-123.733 0-115.2-68.267-174.933-102.4-98.133-17.067 38.4-42.667 25.6-93.867-42.667-68.267-89.6-72.533-89.6-128-21.333-51.2 68.267-64 68.267-102.4 12.8-34.133-55.467-46.933-46.933-68.267 34.133-17.067 51.2-42.667 93.867-64 93.867s-38.4 25.6-38.4 59.733c0 59.733 243.2 153.6 332.8 128 34.133-8.533 106.667-29.867 162.133-42.667zM298.667 379.733c0-34.133-17.067-51.2-42.667-38.4-21.333 12.8-42.667 55.467-42.667 89.6s21.333 51.2 42.667 38.4c25.6-12.8 42.667-55.467 42.667-89.6zM772.267 302.933c21.333 12.8 38.4 4.267 38.4-21.333 0-21.333-17.067-55.467-42.667-68.267-21.333-12.8-42.667-4.267-42.667 21.333s-17.067 34.133-42.667 21.333c-46.933-29.867-59.733 34.133-12.8 81.067 17.067 17.067 38.4 8.533 46.933-12.8 8.533-25.6 34.133-38.4 55.467-21.333z" />
<glyph unicode="&#xe909;" glyph-name="category-list1" d="M143.36 448v-471.040h544.768l192.512 196.608v745.472h-737.28v-471.040zM368.64 673.28c0-10.24-14.336-20.48-30.72-20.48s-30.72 10.24-30.72 20.48c0 12.288 14.336 20.48 30.72 20.48s30.72-8.192 30.72-20.48zM716.8 673.28c0-12.288-61.44-20.48-143.36-20.48s-143.36 8.192-143.36 20.48c0 12.288 61.44 20.48 143.36 20.48s143.36-8.192 143.36-20.48zM368.64 550.4c0-10.24-14.336-20.48-30.72-20.48s-30.72 10.24-30.72 20.48c0 12.288 14.336 20.48 30.72 20.48s30.72-8.192 30.72-20.48zM716.8 550.4c0-12.288-61.44-20.48-143.36-20.48s-143.36 8.192-143.36 20.48c0 12.288 61.44 20.48 143.36 20.48s143.36-8.192 143.36-20.48zM368.64 427.52c0-10.24-14.336-20.48-30.72-20.48s-30.72 10.24-30.72 20.48c0 12.288 14.336 20.48 30.72 20.48s30.72-8.192 30.72-20.48zM716.8 427.52c0-12.288-61.44-20.48-143.36-20.48s-143.36 8.192-143.36 20.48c0 12.288 61.44 20.48 143.36 20.48s143.36-8.192 143.36-20.48zM368.64 304.64c0-10.24-14.336-20.48-30.72-20.48s-30.72 10.24-30.72 20.48c0 12.288 14.336 20.48 30.72 20.48s30.72-8.192 30.72-20.48zM716.8 304.64c0-12.288-61.44-20.48-143.36-20.48s-143.36 8.192-143.36 20.48c0 12.288 61.44 20.48 143.36 20.48s143.36-8.192 143.36-20.48zM819.2 175.616c0-4.096-32.768-36.864-71.68-75.776l-71.68-69.632v75.776c0 73.728 2.048 75.776 71.68 75.776 38.912 0 71.68-2.048 71.68-6.144z" />
<glyph unicode="&#xe90a;" glyph-name="category-processor" d="M128 874.667c0-21.333 21.333-42.667 42.667-42.667 25.6 0 42.667 21.333 42.667 42.667 0 25.6-17.067 42.667-42.667 42.667-21.333 0-42.667-17.067-42.667-42.667zM298.667 874.667c0-21.333 21.333-42.667 42.667-42.667 25.6 0 42.667 21.333 42.667 42.667 0 25.6-17.067 42.667-42.667 42.667-21.333 0-42.667-17.067-42.667-42.667zM469.333 874.667c0-21.333 21.333-42.667 42.667-42.667 25.6 0 42.667 21.333 42.667 42.667 0 25.6-17.067 42.667-42.667 42.667-21.333 0-42.667-17.067-42.667-42.667zM640 874.667c0-21.333 21.333-42.667 42.667-42.667 25.6 0 42.667 21.333 42.667 42.667 0 25.6-17.067 42.667-42.667 42.667-21.333 0-42.667-17.067-42.667-42.667zM810.667 874.667c0-21.333 21.333-42.667 42.667-42.667 25.6 0 42.667 21.333 42.667 42.667 0 25.6-17.067 42.667-42.667 42.667-21.333 0-42.667-17.067-42.667-42.667zM102.4 691.2c-12.8-34.133-17.067-166.4-8.533-290.133l12.8-230.4h810.667v554.667l-396.8 12.8c-307.2 8.533-401.067 0-418.133-46.933zM298.667 320c0-21.333-17.067-42.667-42.667-42.667-21.333 0-42.667 21.333-42.667 42.667 0 25.6 21.333 42.667 42.667 42.667 25.6 0 42.667-17.067 42.667-42.667zM128 21.333c0-21.333 21.333-42.667 42.667-42.667 25.6 0 42.667 21.333 42.667 42.667 0 25.6-17.067 42.667-42.667 42.667-21.333 0-42.667-17.067-42.667-42.667zM298.667 21.333c0-21.333 21.333-42.667 42.667-42.667 25.6 0 42.667 21.333 42.667 42.667 0 25.6-17.067 42.667-42.667 42.667-21.333 0-42.667-17.067-42.667-42.667zM469.333 21.333c0-21.333 21.333-42.667 42.667-42.667 25.6 0 42.667 21.333 42.667 42.667 0 25.6-17.067 42.667-42.667 42.667-21.333 0-42.667-17.067-42.667-42.667zM640 21.333c0-21.333 21.333-42.667 42.667-42.667 25.6 0 42.667 21.333 42.667 42.667 0 25.6-17.067 42.667-42.667 42.667-21.333 0-42.667-17.067-42.667-42.667zM810.667 21.333c0-21.333 21.333-42.667 42.667-42.667 25.6 0 42.667 21.333 42.667 42.667 0 25.6-17.067 42.667-42.667 42.667-21.333 0-42.667-17.067-42.667-42.667z" />
<glyph unicode="&#xe90b;" glyph-name="category-crown1" d="M498.416 856.137c-25.287-5.433-44.931-20.48-55.902-42.945-6.060-12.225-8.15-21.316-8.15-35.004 0-21.107 7.21-39.184 21.525-54.021 5.016-5.224 5.224-5.642 4.18-8.882-1.881-6.060-122.671-340.846-123.089-341.264-0.209-0.209-41.273 31.242-91.22 69.799l-90.802 70.217 1.358 5.851c2.194 9.091 1.881 26.54-0.627 36.362-3.971 15.882-13.166 30.511-26.331 41.796-6.583 5.642-21.629 13.27-31.138 15.778-9.3 2.508-29.362 2.403-38.557-0.104-37.198-10.136-61.649-43.572-59.35-81.084 1.149-17.554 6.478-31.556 17.345-45.244 13.061-16.509 32.914-26.958 55.484-29.466l5.747-0.627 53.708-143.882c29.571-79.099 54.753-146.077 56.111-148.689 4.389-8.882 15.151-15.569 24.973-15.569 10.24 0 20.376 6.583 25.078 16.196 2.508 5.016 2.821 6.687 2.403 13.27-0.418 7.105-3.971 16.718-53.499 143.36-29.153 74.606-52.872 135.732-52.663 135.941 0.209 0.104 45.662-35.004 101.146-77.949 76.487-59.35 102.087-78.576 105.953-79.935 12.957-4.389 28.526 2.299 34.168 14.733 0.94 2.299 31.765 88.085 68.336 190.589 36.571 102.609 66.769 187.037 67.187 187.768s31.033-83.801 68.127-187.768c40.751-114.207 67.918-189.022 68.754-189.022 0.627 0 1.254-0.731 1.254-1.672 0-0.836 2.508-4.075 5.538-7.105 9.195-9.195 21.211-11.494 32.183-6.060 2.508 1.254 48.588 36.362 102.296 78.054 53.708 41.587 97.802 75.546 97.907 75.337 0.313-0.209-87.249-224.967-96.549-248.059-0.418-1.045-45.871-1.254-229.355-1.254l-228.833 0.104-4.598-2.299c-8.986-4.284-16.091-15.673-16.091-25.496 0-10.344 6.583-20.376 16.509-25.287l5.956-2.926h481.698l5.956 2.926c7.105 3.448 10.658 7.419 14.42 15.882 1.567 3.448 26.54 69.799 55.484 147.54l52.663 141.27 4.702 0.627c31.033 3.866 54.23 19.435 66.247 44.722 16.614 34.691 5.956 76.173-25.182 98.534-33.646 24.242-80.353 18.181-107.207-13.897-6.269-7.523-13.688-22.465-15.987-32.183-2.299-9.613-2.299-27.063 0-35.944 0.94-3.657 1.567-6.792 1.463-6.896-0.209-0.104-39.079-30.198-86.518-66.873s-87.98-68.023-90.175-69.799c-2.194-1.672-4.18-2.821-4.493-2.508-0.627 0.522-122.358 338.233-123.193 341.682-0.522 1.776 0.627 3.657 4.911 8.046 42.318 43.886 22.361 116.193-36.258 132.075-8.777 2.403-26.54 3.030-35.004 1.254zM186.514 93.362c-4.389-1.985-8.359-6.478-11.18-12.643-1.881-4.18-2.403-7.001-2.403-14.211 0-7.837 0.418-9.613 3.135-15.047 2.090-4.18 4.702-7.21 7.628-9.404l4.598-3.135 321.411-0.313c176.901-0.104 323.5 0 325.904 0.313 6.269 0.94 13.166 7.21 15.882 14.733 2.403 6.269 2.926 17.136 1.149 23.406s-6.896 13.27-11.389 15.673l-4.18 2.090h-323.709c-268.121-0.104-324.232-0.313-326.844-1.463z" />
<glyph unicode="&#xe90c;" glyph-name="category-dirt" d="M511.208 895.875c-5.073-0.134-9.815-1.428-14.009-3.626l0.176 0.084-373.333-191.875c-10.397-5.426-17.373-16.127-17.375-28.458v0-469.333c0.002-12.331 6.978-23.032 17.199-28.374l0.176-0.084 373.333-191.792c4.25-2.229 9.285-3.537 14.625-3.537s10.375 1.308 14.802 3.621l-0.177-0.084 373.333 191.792c10.397 5.426 17.373 16.127 17.375 28.458v0 469.333c-0.002 12.331-6.978 23.032-17.199 28.374l-0.176 0.084-373.333 191.875c-4.257 2.238-9.301 3.551-14.652 3.551-0.269 0-0.537-0.003-0.805-0.010l0.040 0.001zM512 827.875l341.333-175.417v-102.292l-58.042-27.083c-3.755-1.749-6.167-5.548-6.167-9.708l0.042-41.208c0-4.053-2.27-7.77-5.875-9.583l-25.833-12.917c-7.083-3.541-15.458 1.606-15.458 9.542v53.25c0 3.712-1.905 7.142-5.083 9.083-3.136 1.92-7.11 2.122-10.417 0.458l-37.792-19.208c-3.584-1.813-5.792-5.531-5.792-9.542v-105.792c0-4.053-2.29-7.728-5.917-9.542l-22.208-11.083c-7.083-3.52-15.374 1.648-15.417 9.542l-0.208 51.292c0 3.669-1.906 7.080-5.042 9-3.115 1.941-7.069 2.143-10.333 0.5l-41.792-20.708c-3.605-1.792-5.895-5.468-5.917-9.5l-0.25-41.917c-0.021-3.925-2.231-7.499-5.708-9.333l-31.792-16.792c-7.125-3.733-15.667 1.437-15.667 9.458v32.292c0 3.968-2.21 7.561-5.708 9.417l-74.375 39.25c-3.307 1.749-7.258 1.65-10.458-0.292-3.2-1.92-5.187-5.35-5.208-9.083l-0.167-33.792c-0.043-7.851-8.272-12.976-15.333-9.542l-21.292 10.333c-3.648 1.771-5.957 5.488-6 9.542l-0.208 27.417c-0.021 3.968-2.25 7.603-5.792 9.417l-37.042 19v27.917c0 4.053-2.29 7.791-5.917 9.583l-64.125 31.792c-3.285 1.643-7.176 1.483-10.333-0.458-3.136-1.941-5.042-5.393-5.042-9.083v-40.542c0-7.893-8.292-13.061-15.375-9.583l-24.5 12.042c-3.648 1.792-5.958 5.55-5.958 9.625v13.75c0 4.117-2.371 7.896-6.083 9.667l-33.083 15.708v129.708l341.333 175.417zM800.917 405.167c1.757-0.125 3.495-0.685 5.042-1.667 3.051-1.963 4.917-5.31 4.917-8.958v-41.5h-0.042c0-4.011-2.25-7.665-5.792-9.5l-42.833-22c-1.536-0.789-3.19-1.167-4.875-1.167-1.92 0-3.856 0.518-5.542 1.542-3.157 1.92-5.082 5.33-5.125 9.042l-0.333 43.708c-0.021 4.203 2.431 8.042 6.25 9.792l43.167 19.792c1.643 0.757 3.409 1.042 5.167 0.917zM287.125 362.208c1.76 0.123 3.566-0.17 5.208-0.917l43.167-19.792c3.819-1.749 6.23-5.61 6.208-9.792l-0.333-43.75c-0.021-3.691-1.946-7.122-5.125-9.042-1.685-1.024-3.622-1.542-5.542-1.542-1.664 0-3.339 0.399-4.875 1.167l-42.833 22c-3.563 1.835-5.792 5.489-5.792 9.5v41.542c0 3.627 1.866 6.996 4.917 8.958 1.536 0.981 3.24 1.544 5 1.667zM694.333 319.583c1.755-0.123 3.453-0.716 5-1.708 3.051-1.963 4.917-5.31 4.917-8.958v-41.542c0-4.011-2.25-7.624-5.792-9.458l-42.833-22c-1.536-0.789-3.19-1.167-4.875-1.167-1.92 0-3.856 0.476-5.542 1.5-3.179 1.92-5.104 5.33-5.125 9.042l-0.333 43.75c-0.021 4.203 2.39 8.042 6.208 9.792l43.167 19.792c1.653 0.757 3.454 1.081 5.208 0.958z" />
<glyph unicode="&#xe916;" glyph-name="category-pacman" d="M964.73 781.196c-93.902 109.45-233.21 178.804-388.73 178.804-282.77 0-512-229.23-512-512s229.23-512 512-512c155.52 0 294.828 69.356 388.728 178.804l-324.728 333.196 324.73 333.196zM704 839.398c39.432 0 71.398-31.964 71.398-71.398 0-39.432-31.966-71.398-71.398-71.398s-71.398 31.966-71.398 71.398c0 39.432 31.966 71.398 71.398 71.398z" />
<glyph unicode="&#xe936;" glyph-name="price-tags" horiz-adv-x="1280" d="M1232 972.8h-384c-26.4 0-63.274-15.274-81.942-33.942l-476.116-476.116c-18.668-18.668-18.668-49.214 0-67.882l412.118-412.118c18.668-18.668 49.214-18.668 67.882 0l476.118 476.118c18.666 18.666 33.94 55.54 33.94 81.94v384c0 26.4-21.6 48-48 48zM992 588.8c-53.020 0-96 42.98-96 96s42.98 96 96 96 96-42.98 96-96-42.98-96-96-96zM128 428.8l544 544h-80c-26.4 0-63.274-15.274-81.942-33.942l-476.116-476.116c-18.668-18.668-18.668-49.214 0-67.882l412.118-412.118c18.668-18.668 49.214-18.668 67.882 0l30.058 30.058-416 416z" />
<glyph unicode="&#xe964;" glyph-name="category-coins" d="M512 960c-282.77 0-512-71.634-512-160v-128c0-88.366 229.23-160 512-160s512 71.634 512 160v128c0 88.366-229.23 160-512 160zM512 416c-282.77 0-512 71.634-512 160v-192c0-88.366 229.23-160 512-160s512 71.634 512 160v192c0-88.366-229.23-160-512-160zM512 128c-282.77 0-512 71.634-512 160v-192c0-88.366 229.23-160 512-160s512 71.634 512 160v192c0-88.366-229.23-160-512-160z" />
<glyph unicode="&#xe976;" glyph-name="category-user-tie" d="M320 768c0 106.039 85.961 192 192 192s192-85.961 192-192c0-106.039-85.961-192-192-192s-192 85.961-192 192zM768.078 512h-35.424l-199.104-404.244 74.45 372.244-96 96-96-96 74.45-372.244-199.102 404.244h-35.424c-127.924 0-127.924-85.986-127.924-192v-320h768v320c0 106.014 0 192-127.922 192z" />
<glyph unicode="&#xe994;" glyph-name="category-cog" d="M933.79 349.75c-53.726 93.054-21.416 212.304 72.152 266.488l-100.626 174.292c-28.75-16.854-62.176-26.518-97.846-26.518-107.536 0-194.708 87.746-194.708 195.99h-201.258c0.266-33.41-8.074-67.282-25.958-98.252-53.724-93.056-173.156-124.702-266.862-70.758l-100.624-174.292c28.97-16.472 54.050-40.588 71.886-71.478 53.638-92.908 21.512-211.92-71.708-266.224l100.626-174.292c28.65 16.696 61.916 26.254 97.4 26.254 107.196 0 194.144-87.192 194.7-194.958h201.254c-0.086 33.074 8.272 66.57 25.966 97.218 53.636 92.906 172.776 124.594 266.414 71.012l100.626 174.29c-28.78 16.466-53.692 40.498-71.434 71.228zM512 240.668c-114.508 0-207.336 92.824-207.336 207.334 0 114.508 92.826 207.334 207.336 207.334 114.508 0 207.332-92.826 207.332-207.334-0.002-114.51-92.824-207.334-207.332-207.334z" />
<glyph unicode="&#xe995;" glyph-name="category-cogs" d="M363.722 237.948l41.298 57.816-45.254 45.256-57.818-41.296c-10.722 5.994-22.204 10.774-34.266 14.192l-11.682 70.084h-64l-11.68-70.086c-12.062-3.418-23.544-8.198-34.266-14.192l-57.818 41.298-45.256-45.256 41.298-57.816c-5.994-10.72-10.774-22.206-14.192-34.266l-70.086-11.682v-64l70.086-11.682c3.418-12.060 8.198-23.544 14.192-34.266l-41.298-57.816 45.254-45.256 57.818 41.296c10.722-5.994 22.204-10.774 34.266-14.192l11.682-70.084h64l11.68 70.086c12.062 3.418 23.544 8.198 34.266 14.192l57.818-41.296 45.254 45.256-41.298 57.816c5.994 10.72 10.774 22.206 14.192 34.266l70.088 11.68v64l-70.086 11.682c-3.418 12.060-8.198 23.544-14.192 34.266zM224 96c-35.348 0-64 28.654-64 64s28.652 64 64 64 64-28.654 64-64-28.652-64-64-64zM1024 576v64l-67.382 12.25c-1.242 8.046-2.832 15.978-4.724 23.79l57.558 37.1-24.492 59.128-66.944-14.468c-4.214 6.91-8.726 13.62-13.492 20.13l39.006 56.342-45.256 45.254-56.342-39.006c-6.512 4.766-13.22 9.276-20.13 13.494l14.468 66.944-59.128 24.494-37.1-57.558c-7.812 1.892-15.744 3.482-23.79 4.724l-12.252 67.382h-64l-12.252-67.382c-8.046-1.242-15.976-2.832-23.79-4.724l-37.098 57.558-59.128-24.492 14.468-66.944c-6.91-4.216-13.62-8.728-20.13-13.494l-56.342 39.006-45.254-45.254 39.006-56.342c-4.766-6.51-9.278-13.22-13.494-20.13l-66.944 14.468-24.492-59.128 57.558-37.1c-1.892-7.812-3.482-15.742-4.724-23.79l-67.384-12.252v-64l67.382-12.25c1.242-8.046 2.832-15.978 4.724-23.79l-57.558-37.1 24.492-59.128 66.944 14.468c4.216-6.91 8.728-13.618 13.494-20.13l-39.006-56.342 45.254-45.256 56.342 39.006c6.51-4.766 13.22-9.276 20.13-13.492l-14.468-66.944 59.128-24.492 37.102 57.558c7.81-1.892 15.742-3.482 23.788-4.724l12.252-67.384h64l12.252 67.382c8.044 1.242 15.976 2.832 23.79 4.724l37.1-57.558 59.128 24.492-14.468 66.944c6.91 4.216 13.62 8.726 20.13 13.492l56.342-39.006 45.256 45.256-39.006 56.342c4.766 6.512 9.276 13.22 13.492 20.13l66.944-14.468 24.492 59.13-57.558 37.1c1.892 7.812 3.482 15.742 4.724 23.79l67.382 12.25zM672 468.8c-76.878 0-139.2 62.322-139.2 139.2s62.32 139.2 139.2 139.2 139.2-62.322 139.2-139.2c0-76.878-62.32-139.2-139.2-139.2z" />
<glyph unicode="&#xe9a3;" glyph-name="category-spoon-knife" d="M224 960c-106.040 0-192-100.288-192-224 0-105.924 63.022-194.666 147.706-217.998l-31.788-518.124c-2.154-35.132 24.882-63.878 60.082-63.878h32c35.2 0 62.236 28.746 60.082 63.878l-31.788 518.124c84.684 23.332 147.706 112.074 147.706 217.998 0 123.712-85.96 224-192 224zM869.334 960l-53.334-320h-40l-26.666 320h-26.668l-26.666-320h-40l-53.334 320h-26.666v-416c0-17.672 14.326-32 32-32h83.338l-31.42-512.122c-2.154-35.132 24.882-63.878 60.082-63.878h32c35.2 0 62.236 28.746 60.082 63.878l-31.42 512.122h83.338c17.674 0 32 14.328 32 32v416h-26.666z" />
<glyph unicode="&#xe9a4;" glyph-name="category-leaf" d="M1011.328 825.504c-110.752 83.928-281.184 134.034-455.91 134.034-216.12 0-392.226-75.456-483.16-207.020-42.708-61.79-66.33-134.958-70.208-217.474-3.454-73.474 8.884-154.726 36.684-242.146 94.874 284.384 359.82 507.102 665.266 507.102 0 0-285.826-75.232-465.524-308.192-0.112-0.138-2.494-3.090-6.614-8.698-36.080-48.278-67.538-103.162-91.078-165.328-39.87-94.83-76.784-224.948-76.784-381.782h128c0 0-19.43 122.222 14.36 262.79 55.89-7.556 105.858-11.306 150.852-11.306 117.678 0 201.37 25.46 263.388 80.124 55.568 48.978 86.198 114.786 118.624 184.456 49.524 106.408 105.654 227.010 268.654 320.152 9.33 5.332 15.362 14.992 16.056 25.716s-4.040 21.080-12.606 27.572z" />
<glyph unicode="&#xe9a5;" glyph-name="category-category-rocket" d="M704 896l-320-320h-192l-192-256c0 0 203.416 56.652 322.066 30.084l-322.066-414.084 421.902 328.144c58.838-134.654-37.902-328.144-37.902-328.144l256 192v192l320 320 64 320-320-64z" />
<glyph unicode="&#xe9a9;" glyph-name="category-fire" d="M321.008-64c-68.246 142.008-31.902 223.378 20.55 300.044 57.44 83.956 72.244 167.066 72.244 167.066s45.154-58.7 27.092-150.508c79.772 88.8 94.824 230.28 82.782 284.464 180.314-126.012 257.376-398.856 153.522-601.066 552.372 312.532 137.398 780.172 65.154 832.85 24.082-52.676 28.648-141.85-20-185.126-82.352 312.276-285.972 376.276-285.972 376.276 24.082-161.044-87.296-337.144-194.696-468.73-3.774 64.216-7.782 108.528-41.55 169.98-7.58-116.656-96.732-211.748-120.874-328.628-32.702-158.286 24.496-274.18 241.748-396.622z" />
<glyph unicode="&#xe9ac;" glyph-name="category-bin" d="M128 640v-640c0-35.2 28.8-64 64-64h576c35.2 0 64 28.8 64 64v640h-704zM320 64h-64v448h64v-448zM448 64h-64v448h64v-448zM576 64h-64v448h64v-448zM704 64h-64v448h64v-448zM848 832h-208v80c0 26.4-21.6 48-48 48h-224c-26.4 0-48-21.6-48-48v-80h-208c-26.4 0-48-21.6-48-48v-80h832v80c0 26.4-21.6 48-48 48zM576 832h-192v63.198h192v-63.198z" />
<glyph unicode="&#xea0e;" glyph-name="category-blocked" d="M874.040 810.040c-96.706 96.702-225.28 149.96-362.040 149.96s-265.334-53.258-362.040-149.96c-96.702-96.706-149.96-225.28-149.96-362.040s53.258-265.334 149.96-362.040c96.706-96.702 225.28-149.96 362.040-149.96s265.334 53.258 362.040 149.96c96.702 96.706 149.96 225.28 149.96 362.040s-53.258 265.334-149.96 362.040zM896 448c0-82.814-26.354-159.588-71.112-222.38l-535.266 535.268c62.792 44.758 139.564 71.112 222.378 71.112 211.738 0 384-172.262 384-384zM128 448c0 82.814 26.354 159.586 71.112 222.378l535.27-535.268c-62.794-44.756-139.568-71.11-222.382-71.11-211.738 0-384 172.262-384 384z" />
<glyph unicode="&#xea0f;" glyph-name="category-cross" d="M1014.662 137.34c-0.004 0.004-0.008 0.008-0.012 0.010l-310.644 310.65 310.644 310.65c0.004 0.004 0.008 0.006 0.012 0.010 3.344 3.346 5.762 7.254 7.312 11.416 4.246 11.376 1.824 24.682-7.324 33.83l-146.746 146.746c-9.148 9.146-22.45 11.566-33.828 7.32-4.16-1.55-8.070-3.968-11.418-7.31 0-0.004-0.004-0.006-0.008-0.010l-310.648-310.652-310.648 310.65c-0.004 0.004-0.006 0.006-0.010 0.010-3.346 3.342-7.254 5.76-11.414 7.31-11.38 4.248-24.682 1.826-33.83-7.32l-146.748-146.748c-9.148-9.148-11.568-22.452-7.322-33.828 1.552-4.16 3.97-8.072 7.312-11.416 0.004-0.002 0.006-0.006 0.010-0.010l310.65-310.648-310.65-310.652c-0.002-0.004-0.006-0.006-0.008-0.010-3.342-3.346-5.76-7.254-7.314-11.414-4.248-11.376-1.826-24.682 7.322-33.83l146.748-146.746c9.15-9.148 22.452-11.568 33.83-7.322 4.16 1.552 8.070 3.97 11.416 7.312 0.002 0.004 0.006 0.006 0.010 0.010l310.648 310.65 310.648-310.65c0.004-0.002 0.008-0.006 0.012-0.008 3.348-3.344 7.254-5.762 11.414-7.314 11.378-4.246 24.684-1.826 33.828 7.322l146.746 146.748c9.148 9.148 11.57 22.454 7.324 33.83-1.552 4.16-3.97 8.068-7.314 11.414z" />
<glyph unicode="&#xea10;" glyph-name="category-checkmark" d="M864 832l-480-480-224 224-160-160 384-384 640 640z" />
<glyph unicode="&#xea81;" glyph-name="category-terminal" d="M0 896v-896h1024v896h-1024zM960 64h-896v768h896v-768zM896 768h-768v-640h768v640zM448 448h-64v-64h-64v-64h-64v64h64v64h64v64h-64v64h-64v64h64v-64h64v-64h64v-64zM704 320h-192v64h192v-64z" />
</font>
</defs>
</svg>
