<svg viewBox="0 0 46 16" fill="none" xmlns="http://www.w3.org/2000/svg">
<g clip-path="url(#clip0_128_69067)">
<path d="M29.098 1.81982V13.8668H27.004V3.44982H23.265V13.8668H21.171V1.81982H29.098ZM32.605 14.0398C31.682 14.0398 30.972 13.8608 30.476 13.5028V11.8218C30.741 12.0068 31.03 12.1508 31.342 12.2548C31.665 12.3588 32.045 12.4108 32.484 12.4108C33.142 12.4108 33.638 12.2208 33.972 11.8388C34.307 11.4458 34.515 10.9088 34.595 10.2268H31.567V8.59682H34.578C34.382 7.26882 33.701 6.60382 32.536 6.60382C32.178 6.60382 31.82 6.66182 31.463 6.77782C31.1734 6.86816 30.8947 6.99023 30.632 7.14182V5.38982C30.852 5.27382 31.145 5.17582 31.515 5.09482C31.884 5.01482 32.328 4.97382 32.847 4.97382C33.493 4.97382 34.059 5.08982 34.544 5.32082C35.04 5.54082 35.449 5.85182 35.773 6.25682C36.107 6.64982 36.355 7.12882 36.517 7.69482C36.69 8.24982 36.777 8.85682 36.777 9.51482C36.777 10.9828 36.43 12.1038 35.737 12.8778C35.057 13.6518 34.013 14.0388 32.605 14.0388V14.0398ZM41.672 4.00382C40.841 4.00382 40.212 3.79582 39.785 3.37982C39.37 2.96382 39.162 2.44382 39.162 1.81982H40.892C40.892 2.11982 40.962 2.33982 41.1 2.47882C41.25 2.61782 41.44 2.68682 41.672 2.68682C41.891 2.68682 42.064 2.61682 42.191 2.47882C42.318 2.32882 42.381 2.10882 42.381 1.81982H44.112C44.112 2.11982 44.06 2.40382 43.956 2.66982C43.854 2.93278 43.6944 3.16956 43.489 3.36282C43.293 3.55882 43.039 3.71482 42.728 3.83082C42.428 3.94682 42.075 4.00382 41.672 4.00382ZM40.149 5.14782V10.5558L43.299 5.14782H45.133V13.8668H43.143V8.47682L39.993 13.8668H38.158V5.14782H40.149Z" fill="black"></path>
<path d="M16.867 8C16.867 3.58172 13.2853 0 8.867 0C4.44873 0 0.867004 3.58172 0.867004 8C0.867004 12.4183 4.44873 16 8.867 16C13.2853 16 16.867 12.4183 16.867 8Z" fill="#FC3F1D"></path>
<path d="M9.994 12.808H11.665V3.20801H9.235C6.79 3.20801 5.505 4.46501 5.505 6.31601C5.505 7.79401 6.209 8.66401 7.466 9.56201L5.284 12.808H7.094L9.524 9.17501L8.682 8.60901C7.66 7.91901 7.162 7.37901 7.162 6.21901C7.162 5.19701 7.881 4.50601 9.248 4.50601H9.994V12.808Z" fill="white"></path>
</g>
<defs>
<clipPath id="clip0_128_69067">
<rect width="46" height="16" fill="white"></rect>
</clipPath>
</defs>
</svg>
